HIERARCHY
ROOT Hips
{
	OFFSET -0.179506 -22.333345 2.821913
	CHANNELS 6 Xposition Yposition Zposition Zrotation Yrotation Xrotation 
	JOINT LeftUpLeg
	{
		OFFSET 6.951974 -9.140623 -0.681533
		CHANNELS 3 Zrotation Yrotation Xrotation
		JOINT LeftLeg
		{
			OFFSET 3.427654 -37.519855 -0.449580
			CHANNELS 3 Zrotation Yrotation Xrotation
			JOINT LeftFoot
			{
				OFFSET -1.359570 -39.796059 -4.369333
				CHANNELS 3 Zrotation Yrotation Xrotation
				JOINT LeftToe
				{
					OFFSET 2.635814 -5.579078 11.928840
					CHANNELS 3 Zrotation Yrotation Xrotation
					End Site
					{
						OFFSET 0.000000 0.000000 0.000000
					}
				}
			}
		}
	}
	JOINT RightUpLeg
	{
		OFFSET -6.767048 -9.052170 -0.431982
		CHANNELS 3 Zrotation Yrotation Xrotation
		JOINT RightLeg
		{
			OFFSET -3.829005 -38.256897 -0.885003
			CHANNELS 3 Zrotation Yrotation Xrotation
			JOINT RightFoot
			{
				OFFSET 1.577377 -39.841461 -4.231180
				CHANNELS 3 Zrotation Yrotation Xrotation
				JOINT RightToe
				{
					OFFSET -2.537174 -4.814398 12.334795
					CHANNELS 3 Zrotation Yrotation Xrotation
					End Site
					{
						OFFSET 0.000000 0.000000 0.000000
					}
				}
			}
		}
	}
	JOINT Spine
	{
		OFFSET -0.253288 10.896323 -2.669631
		CHANNELS 3 Zrotation Yrotation Xrotation
		JOINT Spine1
		{
			OFFSET 0.548704 13.518043 0.109247
			CHANNELS 3 Zrotation Yrotation Xrotation
			JOINT Spine2
			{
				OFFSET 0.145701 5.292222 2.542457
				CHANNELS 3 Zrotation Yrotation Xrotation
				JOINT Neck
				{
					OFFSET -0.277840 21.387037 -4.285703
					CHANNELS 3 Zrotation Yrotation Xrotation
					JOINT Head
					{
						OFFSET 0.515184 6.496960 5.134897
						CHANNELS 3 Zrotation Yrotation Xrotation
						End Site
						{
							OFFSET 0.000000 0.000000 0.000000
						}
					}
				}
				JOINT LeftShoulder
				{
					OFFSET 7.884473 12.174932 -3.408961
					CHANNELS 3 Zrotation Yrotation Xrotation
					JOINT LeftArm
					{
						OFFSET 9.097692 3.046888 -0.886815
						CHANNELS 3 Zrotation Yrotation Xrotation
						JOINT LeftForeArm
						{
							OFFSET 25.961220 -1.277207 -2.745643
							CHANNELS 3 Zrotation Yrotation Xrotation
							JOINT LeftHand
							{
								OFFSET 24.923361 0.898606 -0.117091
								CHANNELS 3 Zrotation Yrotation Xrotation
								End Site
								{
									OFFSET 0.000000 0.000000 0.000000
								}
							}
						}
					}
				}
				JOINT RightShoulder
				{
					OFFSET -8.175920 11.883285 -3.861528
					CHANNELS 3 Zrotation Yrotation Xrotation
					JOINT RightArm
					{
						OFFSET -9.601238 3.255117 -0.914307
						CHANNELS 3 Zrotation Yrotation Xrotation
						JOINT RightForeArm
						{
							OFFSET -25.374195 -1.332924 -2.140099
							CHANNELS 3 Zrotation Yrotation Xrotation
							JOINT RightHand
							{
								OFFSET -25.529810 0.777228 -0.555919
								CHANNELS 3 Zrotation Yrotation Xrotation
								End Site
								{
									OFFSET 0.000000 0.000000 0.000000
								}
							}
						}
					}
				}
			}
		}
	}
}
MOTION
Frames: 7
Frame Time: 0.033333
-43.210247 -201.147827 87.273659 -176.984726 3.583127 87.488837 4.246357 -2.482255 4.834902 -10.838237 5.259439 76.943784 2.121275 14.311426 -11.119860 nan nan nan 2.185058 8.910480 -39.810107 7.594338 -5.874909 51.175660 -3.132221 -5.376232 -5.919834 nan nan nan 1.502656 -11.969960 10.543203 8.401467 -8.220132 4.591568 3.210375 -5.660721 -3.937932 -7.988129 7.514148 -3.520574 3.530022 14.035045 -10.625338 -26.268514 -10.551523 8.315270 -47.114598 -16.326085 15.207228 179.070701 -84.302147 -140.022326 2.707223 -9.791343 33.832947 21.258419 -9.928761 -0.336499 47.233403 -16.657141 -5.650580 -18.394270 73.816116 3.514473 5.390927 8.481688 14.561096 
-43.227028 -198.779327 87.035538 -177.517065 4.374841 87.031854 5.506734 -3.011917 1.488990 -10.409523 6.575865 80.609649 3.103804 14.046148 -12.180665 nan nan nan 2.944682 9.586501 -38.741877 7.708781 -6.732584 53.285041 -2.307467 -5.042098 -7.763810 nan nan nan 2.121236 -11.439760 11.508565 8.641610 -7.846668 5.075764 3.155791 -4.934982 -4.463116 -7.878829 7.584297 -4.193267 3.040099 13.313753 -10.747832 -27.675083 -9.463912 8.356058 -46.927651 -14.440079 14.775093 -177.041403 -84.627656 -143.671587 -0.851125 -8.085362 35.175149 23.327164 -8.456304 -0.605810 46.792596 -14.235044 -4.922536 -22.292221 73.629370 -1.373096 7.822497 7.924000 12.626748 
-43.227676 -196.399124 86.816154 -177.885214 5.404558 86.204760 7.144966 -3.592400 -1.558493 -9.971456 7.521405 83.917721 4.266433 12.473392 -12.919132 nan nan nan 4.369340 10.197582 -36.278649 8.185857 -7.132743 53.805020 -2.755123 -5.035291 -9.886894 nan nan nan 3.145742 -10.882637 13.222467 8.537013 -7.684225 4.459885 3.319263 -4.362937 -4.259252 -8.082646 7.539155 -4.421789 2.782063 12.876214 -11.297096 -29.093293 -9.144846 8.420002 -47.535842 -11.222589 13.665040 175.119190 -83.596758 -136.945989 -10.399100 -5.574029 37.577678 25.014616 -6.211049 -0.959789 45.671919 -12.462231 -5.186810 -17.641084 73.843044 2.936629 24.049011 4.993342 14.018050 
-43.224503 -194.051071 86.626724 -178.395070 5.859600 85.783147 8.065697 -3.915010 -5.185959 -9.735711 8.123447 86.662529 5.158161 11.842079 -13.699246 nan nan nan 5.420157 10.386466 -33.986685 8.533232 -7.163746 54.031484 -3.607842 -4.605456 -12.081936 nan nan nan 3.444053 -9.992984 14.137242 8.724633 -7.626953 4.978580 3.396421 -3.972144 -4.889013 -7.749929 7.930153 -4.521666 2.097956 11.950326 -11.865792 -29.510885 -7.495708 8.242395 -48.358692 -9.149688 13.236789 177.827309 -83.742398 -138.799480 -12.507414 -5.565720 38.750417 26.251409 -4.898085 -0.756881 45.741525 -8.971367 -4.061154 -22.442345 73.246589 -2.361960 23.978247 6.445102 11.275434 
-43.258644 -191.690475 86.510681 -178.847665 6.077963 85.187193 8.633045 -3.933540 -8.607760 -9.827322 8.167723 88.814318 5.929105 11.558791 -14.338347 nan nan nan 6.480342 10.156195 -31.271645 8.562487 -6.824984 54.128039 -4.491043 -4.254840 -14.026858 nan nan nan 3.411351 -9.000844 15.197924 8.874915 -7.493890 5.218627 3.506083 -3.545593 -5.320882 -7.527702 7.713083 -4.339873 1.700890 11.255064 -12.412697 -29.437550 -6.078944 8.276510 -49.442319 -7.108531 12.851739 177.385524 -84.076414 -137.627144 -10.562255 -6.098903 37.567638 26.932827 -3.620871 -0.626501 45.716075 -5.633017 -3.037726 -23.282310 72.619159 -4.169402 22.004227 7.670650 7.565933 
-43.306763 -189.304062 86.460670 -179.027871 6.100066 84.686051 8.852535 -4.053096 -12.072328 -9.941606 7.899095 90.444593 6.548219 11.290180 -14.878652 nan nan nan 7.290675 9.564706 -28.552846 8.481107 -6.373777 54.188389 -5.023091 -3.942707 -15.954907 nan nan nan 3.324174 -7.764226 15.916222 8.958442 -7.369074 5.180392 3.661752 -3.316759 -5.470124 -7.445131 7.232159 -3.531221 1.540372 10.684944 -13.191294 -29.003013 -4.807385 8.386147 -50.755768 -5.139485 12.371078 179.083510 -84.497421 -139.187797 -9.259742 -7.058546 36.224212 27.082158 -2.557025 -0.600565 45.811051 -2.521927 -2.470455 -22.293575 72.218844 -3.735935 20.582131 8.774784 5.172398 
-43.362923 -186.922363 86.483841 -179.145102 6.100897 84.392430 8.945927 -4.204623 -15.649268 -10.166441 7.450483 91.566924 7.007402 11.329118 -15.391584 nan nan nan 8.052153 8.824812 -25.994094 8.692281 -5.553006 54.085714 -5.217104 -4.036863 -17.880193 nan nan nan 3.145060 -6.595052 16.435065 8.994274 -7.272651 4.687444 4.010552 -2.931223 -5.079721 -7.606698 6.283995 -2.554848 1.447389 10.582465 -14.435974 -28.754562 -3.596757 8.509865 -51.629592 -3.064338 11.473875 -172.728943 -84.750633 -146.588230 -6.884556 -8.273400 35.587982 27.173330 -1.219644 -0.155836 44.473318 0.512805 -2.575873 -20.603256 72.633365 1.020492 17.202143 9.761889 5.832298 
